<svg width="45" height="32" viewBox="0 0 45 32" fill="none" xmlns="http://www.w3.org/2000/svg">
<path d="M44.1914 27.4542C44.1914 29.7552 42.3258 31.6208 40.0247 31.6208H4.60807C2.30703 31.6208 0.441406 29.7552 0.441406 27.4542V4.53752C0.441406 2.23647 2.30703 0.37085 4.60807 0.37085H40.0247C42.3258 0.37085 44.1914 2.23647 44.1914 4.53752V27.4542Z" fill="#1976D2"/>
<path d="M20.4987 11.8292L18.2976 16.7073L16.107 11.8292H13.2997V18.8355L10.1716 11.8292H7.80282L4.60803 19.1011H6.49866L7.19762 17.4782H10.7726L11.483 19.1011H15.0924V13.7001L17.4872 19.1011H19.1153L21.5643 13.7938V19.1011H23.358V11.8292H20.4987ZM7.87366 15.9073L8.94241 13.3657L10.0528 15.9073H7.87366ZM36.7778 15.3844L40.0247 11.848H37.7153L35.6382 14.1021L33.6289 11.8292H26.483V19.1021H33.3945L35.5737 16.6948L37.6987 19.1209H40.0007L36.7778 15.3844ZM32.4497 17.5751H28.2716V16.1365H32.2695V14.7584H28.2716V13.3959L32.682 13.4084L34.4455 15.3844L32.4497 17.5751Z" fill="white"/>
</svg>
