<svg width="45" height="32" viewBox="0 0 45 32" fill="none" xmlns="http://www.w3.org/2000/svg">
<path d="M44.1914 27.4542C44.1914 29.7458 42.3164 31.6208 40.0247 31.6208H4.60807C2.31641 31.6208 0.441406 29.7458 0.441406 27.4542V4.53752C0.441406 2.24585 2.31641 0.37085 4.60807 0.37085H40.0247C42.3164 0.37085 44.1914 2.24585 44.1914 4.53752V27.4542Z" fill="#E1E7EA"/>
<path d="M44.1914 27.4542C44.1914 29.7458 42.3164 31.6208 40.0247 31.6208H13.983C13.983 31.6208 38.5664 27.6625 44.1914 15.9958V27.4542ZM20.233 15.9958C20.233 17.7667 21.5872 19.1208 23.358 19.1208C25.1289 19.1208 26.483 17.7667 26.483 15.9958C26.483 14.225 25.1289 12.8708 23.358 12.8708C21.5872 12.8708 20.233 14.225 20.233 15.9958Z" fill="#FF6D00"/>
<path d="M8.98307 12.8709H10.1289V19.1209H8.98307V12.8709ZM15.2331 15.9959C15.2331 17.7667 16.5872 19.1209 18.3581 19.1209C18.8789 19.1209 19.2956 19.0167 19.8164 18.8084V17.4542C19.3997 17.8709 18.9831 18.0792 18.3581 18.0792C17.2122 18.0792 16.3789 17.2459 16.3789 15.9959C16.3789 14.8501 17.2122 13.9126 18.3581 13.9126C18.8789 13.9126 19.2956 14.1209 19.8164 14.5376V13.1834C19.2956 12.9751 18.8789 12.7667 18.3581 12.7667C16.5872 12.8709 15.2331 14.3292 15.2331 15.9959ZM29.1914 16.9334L27.5247 12.8709H26.2747L28.8789 19.1209H29.5039L32.1081 12.8709H30.8581L29.1914 16.9334ZM32.6289 19.1209H35.9622V18.0792H33.7747V16.4126H35.8581V15.3709H33.7747V13.9126H35.9622V12.8709H32.6289V19.1209ZM40.5456 14.7459C40.5456 13.6001 39.8164 12.8709 38.4622 12.8709H36.6914V19.1209H37.8372V16.6209H37.9414L39.6081 19.1209H41.0664L39.1914 16.5167C40.0247 16.3084 40.5456 15.6834 40.5456 14.7459ZM38.1497 15.7876H37.8372V13.9126H38.1497C38.8789 13.9126 39.2956 14.2251 39.2956 14.8501C39.2956 15.3709 38.9831 15.7876 38.1497 15.7876ZM5.33724 12.8709H3.56641V19.1209H5.23307C7.83724 19.1209 8.46224 16.9334 8.46224 15.9959C8.56641 14.1209 7.21224 12.8709 5.33724 12.8709ZM5.02474 18.0792H4.71224V13.9126H5.12891C6.69141 13.9126 7.31641 14.9542 7.31641 15.9959C7.31641 16.4126 7.21224 18.0792 5.02474 18.0792ZM13.2539 15.2667C12.5247 14.9542 12.3164 14.8501 12.3164 14.5376C12.3164 14.1209 12.7331 13.9126 13.1497 13.9126C13.4622 13.9126 13.7747 14.0167 14.0872 14.4334L14.7122 13.6001C14.1914 13.0792 13.6706 12.8709 12.9414 12.8709C11.8997 12.8709 11.0664 13.6001 11.0664 14.6417C11.0664 15.4751 11.4831 15.8917 12.5247 16.3084C13.1497 16.5167 13.6706 16.7251 13.6706 17.2459C13.6706 17.7667 13.2539 18.0792 12.7331 18.0792C12.2122 18.0792 11.6914 17.7667 11.4831 17.2459L10.7539 17.9751C11.2747 18.8084 11.8997 19.1209 12.8372 19.1209C14.0872 19.1209 14.9206 18.2876 14.9206 17.1417C14.9206 16.2042 14.5039 15.7876 13.2539 15.2667Z" fill="black"/>
</svg>
