<svg width="45" height="32" viewBox="0 0 45 32" fill="none" xmlns="http://www.w3.org/2000/svg">
<path d="M44.1914 27.4542C44.1914 29.7552 42.3258 31.6208 40.0247 31.6208H4.60807C2.30703 31.6208 0.441406 29.7552 0.441406 27.4542V4.53752C0.441406 2.23647 2.30703 0.37085 4.60807 0.37085H40.0247C42.3258 0.37085 44.1914 2.23647 44.1914 4.53752V27.4542Z" fill="#3F51B5"/>
<path d="M28.5664 5.57922C25.8038 5.57922 23.1543 6.67669 21.2008 8.63019C19.2472 10.5837 18.1498 13.2332 18.1498 15.9959C18.1498 18.7586 19.2472 21.4081 21.2008 23.3616C23.1543 25.3151 25.8038 26.4126 28.5664 26.4126C31.3291 26.4126 33.9786 25.3151 35.9321 23.3616C37.8856 21.4081 38.9831 18.7586 38.9831 15.9959C38.9831 13.2332 37.8856 10.5837 35.9321 8.63019C33.9786 6.67669 31.3291 5.57922 28.5664 5.57922Z" fill="#FFC107"/>
<path d="M20.2476 22.2459C19.7643 21.6032 19.3487 20.9084 19.0226 20.1626H24.5695C24.8591 19.5001 25.0862 18.8042 25.233 18.0792H18.3601C18.2226 17.4063 18.1497 16.7105 18.1497 15.9959H25.4414C25.4414 15.2813 25.3684 14.5855 25.232 13.9126H18.3591C18.507 13.1876 18.733 12.4917 19.0226 11.8292H24.5695C24.2434 11.0834 23.8289 10.3886 23.3445 9.74589H20.2476C20.7028 9.14172 21.2164 8.57714 21.7903 8.08443C19.9695 6.5261 17.6091 5.57922 15.0247 5.57922C9.27157 5.57922 4.60803 10.2428 4.60803 15.9959C4.60803 21.749 9.27157 26.4126 15.0247 26.4126C18.4299 26.4126 21.4434 24.7719 23.3434 22.2459H20.2476Z" fill="#FF3D00"/>
</svg>
