<svg width="49" height="32" viewBox="0 0 49 32" fill="none" xmlns="http://www.w3.org/2000/svg">
<path d="M9.82685 0.37085H21.8946C23.5789 0.37085 24.6268 1.7896 24.2341 3.53647L18.6154 28.4604C18.2185 30.2011 16.5321 31.6208 14.8466 31.6208H2.77997C1.35393 31.6198 0.382054 30.6 0.358096 29.2292C0.353929 28.9823 0.379971 28.725 0.440387 28.4594L6.06122 3.53543C6.45393 1.7896 8.14039 0.37085 9.82685 0.37085Z" fill="#E21836"/>
<path d="M20.6705 0.37085H34.7018C36.4278 0.37085 35.6497 1.7896 35.2435 3.53647L29.4862 28.4615C29.082 30.2011 29.208 31.6208 27.4778 31.6208H13.2539C11.806 31.6208 10.8205 30.6261 10.7758 29.2813C10.7674 29.0198 10.7945 28.7438 10.8601 28.4604L16.8091 3.53543C17.2195 1.7896 18.7508 0.37085 20.4789 0.37085" fill="#00447C"/>
<path d="M33.9758 0.37085H45.8518C47.0841 0.37085 47.9758 1.12814 48.2123 2.21772C48.2581 2.43022 48.2789 2.65522 48.2737 2.8896C48.2685 3.09793 48.2414 3.3146 48.1914 3.53543L42.5737 28.4604C42.1768 30.2011 40.4883 31.6208 38.8018 31.6208H26.7393C25.3279 31.6208 24.3654 30.6281 24.3185 29.2865C24.3091 29.0229 24.3352 28.7469 24.3998 28.4615L30.2102 3.53647C30.6039 1.7896 32.2883 0.37085 33.9758 0.37085Z" fill="#007B84"/>
<path d="M19.4872 9.86768C19.1487 9.66456 18.5445 9.7281 18.131 10.0083C17.7185 10.2823 17.6622 10.6708 17.9997 10.876C18.332 11.0729 18.9393 11.0156 19.3497 10.7333C19.7601 10.4541 19.8216 10.0687 19.4872 9.86768ZM43.3872 11.1791L42.1674 13.3125L41.8935 10.7875L40.6018 11.0937L41.0747 15.2219L39.6008 17.6104C39.5612 17.6666 39.5258 17.7052 39.4768 17.7218C39.4226 17.7479 39.3539 17.7531 39.2581 17.7531H39.2164L38.8997 18.7291L39.681 18.7302C40.2331 18.7281 40.6226 18.4302 40.8185 18.0791L45.1497 10.7875L43.3872 11.1791ZM22.3966 17.0375L21.9758 17.7677C21.8851 17.9271 21.731 18.0791 21.3893 18.0791H21.1799L20.8862 18.9906H21.582C22.4018 18.9906 22.7883 18.5416 22.7883 18.5416H24.9612L25.2747 17.5698H23.4497L23.7414 17.0385L22.3966 17.0375ZM10.1664 11.7094C9.96431 12.4906 9.81118 13.001 9.4591 13.3604C9.21639 13.6083 8.84139 13.726 8.49764 13.725C7.9841 13.725 7.54972 13.401 7.57785 12.8677C7.57993 12.8281 7.58514 12.7864 7.59243 12.7437C7.84451 11.3406 8.94347 7.66248 8.94347 7.66248H6.89451L5.83201 11.8604C5.83201 11.8604 5.5716 12.8687 5.56639 13.2969C5.56222 13.6229 5.61535 13.8896 5.73722 14.1146C6.12889 14.8281 7.28722 14.9541 7.94972 14.9541C9.08306 14.9541 9.75285 14.8458 10.3008 14.5125C11.1747 13.9812 11.4278 13.2625 11.6976 12.2468C12.0018 11.1052 12.8581 7.66248 12.8581 7.66248H11.1966C11.1966 7.66248 10.1674 11.7073 10.1664 11.7094ZM13.5883 14.9541L14.3226 11.9656C14.482 11.8969 14.6383 11.8291 14.7862 11.8291C15.1383 11.8291 15.2174 12.1219 15.1997 12.2385C15.1851 12.3802 14.5851 14.9541 14.5851 14.9541H16.0476L16.5591 12.8C16.7716 12.0041 16.8789 11.6 16.7435 11.2708C16.6018 10.9031 16.2393 10.7875 15.9039 10.7875C15.6851 10.7875 15.2831 10.8635 14.9185 11.0312C14.7862 11.0948 14.6612 11.1687 14.5289 11.2416L14.6362 10.7854L13.081 11.0291L12.0768 14.9541H13.5883ZM25.9581 14.9541L26.6924 11.9656C26.8518 11.8969 27.0081 11.8291 27.156 11.8291C27.5081 11.8291 27.5872 12.1219 27.5695 12.2385C27.5549 12.3802 26.9549 14.9541 26.9549 14.9541H28.4174L28.9289 12.8C29.1414 12.0041 29.2487 11.6 29.1133 11.2708C28.9716 10.9031 28.6091 10.7875 28.2737 10.7875C28.0549 10.7875 27.6528 10.8635 27.2883 11.0312C27.156 11.0948 27.031 11.1687 26.8987 11.2416L27.006 10.7854L25.4508 11.0291L24.4466 14.9541H25.9581ZM17.0247 14.9541H18.5362L19.3174 11.8291L17.7695 12.0583L17.0247 14.9541ZM36.2164 8.30831C35.7851 7.68018 34.8945 7.66768 33.8653 7.66248H33.1081H31.4268L29.5247 14.9541H31.1695L31.8622 12.35H32.1685C33.2174 12.35 34.2226 12.3354 35.0945 11.7062C35.7039 11.2625 36.1706 10.6729 36.3737 9.87602C36.4258 9.68123 36.4674 9.44893 36.4737 9.21664C36.481 8.91143 36.3872 8.54477 36.2164 8.30831ZM34.4643 9.94373C34.3445 10.4302 34.0185 10.8396 33.6081 11.0364C33.2706 11.2031 32.857 11.1791 32.4362 11.1781H32.1737L32.832 8.70414C32.9799 8.70414 33.2278 8.70414 33.4778 8.70414C34.2591 8.70414 34.507 9.20102 34.5049 9.6156C34.5049 9.72289 34.4914 9.83331 34.4643 9.94373ZM28.9726 21.2041C28.9726 21.2041 28.8945 21.4323 28.8695 21.5093C28.8487 21.575 28.7653 21.725 28.5289 21.725H28.0924V21.2041H26.9206V23.8083C26.9133 23.9989 27.107 24.3291 27.9601 24.3291H28.931L29.2289 23.4166L28.3539 23.4177C28.0935 23.4177 28.0987 23.2969 28.0956 23.1052C28.0924 22.8969 28.0924 22.5062 28.0924 22.5062H28.9195C29.6799 22.5062 29.8466 21.875 29.9049 21.6864L30.0185 21.2041H28.9726Z" fill="#FEFEFE"/>
<path d="M29.3414 17.0375C27.7768 17.0375 27.4716 17.7354 27.4716 17.7354L27.6862 17.0375H26.4258L24.3643 23.3739C24.3425 23.4468 24.3143 23.5614 24.3164 23.6854C24.3227 23.9791 24.4977 24.3291 25.3206 24.3291L26.0685 24.3281L26.4018 23.2875C26.4018 23.2875 26.0268 23.2875 25.8966 23.2875C25.7331 23.2875 25.7664 23.1521 25.7664 23.1521L26.505 20.9104H28.357C29.8883 20.9104 30.1727 19.9729 30.3102 19.5458L31.1268 17.0375C31.1268 17.0375 29.9091 17.0375 29.3414 17.0375ZM28.7935 20.1625H26.7091L26.9237 19.5333H29.0122L28.7935 20.1625ZM29.3393 18.6187C29.3393 18.6187 28.2852 18.6083 28.1154 18.6396C27.3685 18.7687 27.055 19.1687 27.055 19.1687L27.407 18.0791H29.5143L29.3393 18.6187ZM38.3862 11.0312C38.3862 11.0312 38.3758 11.0729 38.357 11.1468C38.1966 10.9739 37.931 10.7875 37.5122 10.7875C36.9914 10.7875 36.5362 10.9739 36.0018 11.4302C35.532 11.8364 35.2966 12.3948 35.157 12.9291C35.1029 13.1271 35.0706 13.4406 35.0706 13.6521C35.0706 14.9541 36.1977 14.9541 36.4716 14.9541C36.8831 14.9541 37.2112 14.7969 37.4768 14.5927C37.4435 14.7208 37.382 14.9541 37.382 14.9541H38.8935L39.9414 10.7875L38.3862 11.0312ZM36.9185 14.0333C36.8529 14.0333 36.4622 14.0333 36.4716 13.6052C36.4758 13.3937 36.5258 13.1573 36.6018 12.8854C36.7789 12.2521 37.0175 11.6989 37.6435 11.6989C38.1331 11.6989 38.1237 12.0916 37.9143 12.8791C37.8539 13.1052 37.6841 13.5135 37.5518 13.7125C37.3591 14.0021 37.1393 14.0333 36.9185 14.0333ZM24.0748 11.301C23.7654 10.9125 23.2018 10.7885 22.6143 10.7875C22.2612 10.7875 21.4175 10.8198 20.7435 11.3906C20.2591 11.8031 20.0248 12.3635 19.8779 12.9C19.73 13.4469 19.5487 14.4323 20.4987 14.8C20.7914 14.9208 21.2175 14.9541 21.4935 14.9541C22.1966 14.9552 22.9227 14.7729 23.481 14.2302C23.9112 13.7906 24.1206 13.1354 24.1945 12.8656C24.4352 11.9729 24.2789 11.5552 24.0748 11.301ZM21.6383 14.0323C21.5727 14.0323 21.182 14.0323 21.1914 13.6041C21.1956 13.3927 21.2539 13.1135 21.3216 12.8844C21.4977 12.2885 21.7383 11.6979 22.3633 11.6979C22.8529 11.6979 22.8435 12.0906 22.6341 12.8781C22.5737 13.1041 22.4039 13.5125 22.2716 13.7114C22.0789 14.0021 21.8591 14.0333 21.6383 14.0323ZM21.032 19.2406L20.7289 20.1625H21.6102L21.3518 20.9635H20.4685L20.1498 21.9396H21.03L20.4716 23.6468C20.3966 23.8729 20.3935 24.3281 21.2404 24.3281H22.9352L23.2748 23.2875C23.2748 23.2875 22.305 23.2875 22.0445 23.2875C21.7841 23.2875 21.8539 23.1031 21.8539 23.1031L22.2373 21.9239H24.056L24.3706 20.9646H22.5508L22.8164 20.1625H24.6008L24.9102 19.2406H21.032ZM40.6706 20.075L40.9831 19.1208H36.7779L36.4716 20.075H37.7331L37.4758 20.8489H36.1925L35.9185 21.6948H37.0456L36.0425 23.0125C35.9622 23.1281 35.7925 23.2875 35.5133 23.2875H35.007L35.106 22.9864H34.6706L36.2737 18.0791H36.8435L37.0227 17.5396C37.0227 17.5396 37.0227 17.9364 37.0227 18.0781C37.0227 18.5302 37.1529 18.7302 37.8779 18.7302H38.3758L38.6914 17.7562H38.4591C38.306 17.7594 38.2331 17.7104 38.2456 17.6125V17.0375C38.2456 17.0375 37.4133 17.0375 36.9435 17.0375C35.7195 17.0375 34.9612 17.0948 34.6591 17.175C34.2935 17.2687 33.8185 17.5469 33.8185 17.5469L33.982 17.0375H32.6289L30.6893 22.9979H30.3977L30.0664 24.0062H33.0602L32.955 24.3291H34.2352L34.3393 24.0062H34.7581L34.6487 24.3291H35.7112C35.981 24.3291 36.1987 24.2687 36.38 24.1677C36.5695 24.0625 36.7185 23.9135 36.8456 23.7437L37.6331 22.6958L37.7529 23.7948C37.7831 23.9948 37.8602 24.3291 38.682 24.3291H39.2737L39.6164 23.2875H39.23C38.9539 23.2875 38.8945 23.0843 38.8789 22.9781L38.7414 21.9114H38.1008L38.3612 21.6948H40.1352L40.4143 20.8489H38.7633L39.0247 20.075H40.6706ZM33.6539 18.0791H35.0112L34.7216 18.9677C34.7216 18.9677 34.2404 18.9969 33.9998 19.051C33.5904 19.1448 33.2498 19.3094 33.2498 19.3094L33.6539 18.0791ZM33.4091 22.9979H32.0487L32.4102 21.8896H33.7675L33.4091 22.9979ZM34.1164 20.8104C34.1164 20.8104 33.756 20.8552 33.5185 20.9093C33.1029 21.0291 32.6279 21.2041 32.6279 21.2041L33.0445 19.9354H34.407L34.1164 20.8104Z" fill="#FEFEFE"/>
</svg>
