<svg width="45" height="32" viewBox="0 0 45 32" fill="none" xmlns="http://www.w3.org/2000/svg">
<path d="M44.1914 27.4542C44.1914 29.7552 42.3258 31.6208 40.0247 31.6208H4.60807C2.30703 31.6208 0.441406 29.7552 0.441406 27.4542V4.53752C0.441406 2.23647 2.30703 0.37085 4.60807 0.37085H40.0247C42.3258 0.37085 44.1914 2.23647 44.1914 4.53752V27.4542Z" fill="#1565C0"/>
<path d="M13.1352 10.7875L10.3998 18.9459C10.3998 18.9459 9.70496 15.4948 9.63621 15.0615C8.07892 11.5084 5.78101 11.7063 5.78101 11.7063L8.48934 22.2459V22.2438H11.782L16.3352 10.7875H13.1352ZM15.7425 22.2459H18.7331L20.5414 10.7875H17.5133L15.7425 22.2459ZM36.9081 10.7875H33.7612L28.855 22.2459H31.8258L32.4383 20.6094H36.1841L36.5029 22.2459H39.2248L36.9081 10.7875ZM33.2675 18.4209L34.8956 14.0907L35.7477 18.4209H33.2675ZM24.7841 14.1271C24.7841 13.4959 25.3029 13.0261 26.7904 13.0261C27.757 13.0261 28.8643 13.7282 28.8643 13.7282L29.3498 11.323C29.3498 11.323 27.9352 10.7865 26.5466 10.7865C23.4018 10.7865 21.78 12.2907 21.78 14.1948C21.78 17.6386 25.9248 17.1667 25.9248 18.9355C25.9248 19.2386 25.6841 19.9396 23.9581 19.9396C22.2268 19.9396 21.0841 19.3052 21.0841 19.3052L20.5685 21.6136C20.5685 21.6136 21.6758 22.2448 23.8154 22.2448C25.9602 22.2448 28.9352 20.6407 28.9352 18.3365C28.9352 15.5646 24.7841 15.3646 24.7841 14.1271Z" fill="white"/>
<path d="M10.0372 16.9802L9.031 12.0344C9.031 12.0344 8.57579 10.9625 7.39246 10.9625C6.20912 10.9625 2.76746 10.9625 2.76746 10.9625C2.76746 10.9625 8.66433 12.7042 10.0372 16.9802Z" fill="#FFC107"/>
</svg>
