<svg width="26" height="26" viewBox="0 0 26 26" fill="none" xmlns="http://www.w3.org/2000/svg">
<path fill-rule="evenodd" clip-rule="evenodd" d="M0.5 1.7931C0.5 1.07894 1.07894 0.5 1.7931 0.5H4.57239C6.07574 0.5 7.34552 1.6057 7.5587 3.08621H24.2069C24.5671 3.08621 24.9109 3.23643 25.1557 3.50071C25.4004 3.76499 25.5238 4.11936 25.4962 4.47849L24.879 12.5016C24.689 14.9718 22.6292 16.8793 20.1516 16.8793H9.20166L9.36166 18.2234C9.38748 18.4402 9.57133 18.6034 9.78968 18.6034H20.7586C21.4728 18.6034 22.0517 19.1824 22.0517 19.8965C22.0517 20.6107 21.4728 21.1897 20.7586 21.1897H9.78968C8.26126 21.1897 6.97427 20.0468 6.79359 18.5291L5.0004 3.46629C4.97459 3.24947 4.79073 3.08621 4.57239 3.08621H1.7931C1.07894 3.08621 0.5 2.50726 0.5 1.7931ZM8.89378 14.2931H20.1516C21.2778 14.2931 22.2141 13.4261 22.3004 12.3032L22.8105 5.67241H7.8675L8.89378 14.2931ZM13.431 24.6383C13.431 25.5905 12.6591 26.3624 11.7069 26.3624C10.7546 26.3624 9.98272 25.5905 9.98272 24.6383C9.98272 23.6861 10.7546 22.9141 11.7069 22.9141C12.6591 22.9141 13.431 23.6861 13.431 24.6383ZM22.0517 24.6383C22.0517 25.5905 21.2798 26.3624 20.3276 26.3624C19.3754 26.3624 18.6034 25.5905 18.6034 24.6383C18.6034 23.6861 19.3754 22.9141 20.3276 22.9141C21.2798 22.9141 22.0517 23.6861 22.0517 24.6383Z" fill="#4A4A4A"/>
</svg>
