<svg width="24" height="20" viewBox="0 0 24 20" fill="none" xmlns="http://www.w3.org/2000/svg">
<path d="M1.00649 0.987383C0.902963 0.985919 0.80018 1.00504 0.704111 1.04365C0.608042 1.08225 0.520604 1.13957 0.446877 1.21226C0.373151 1.28495 0.314607 1.37157 0.274648 1.46708C0.234689 1.56259 0.214111 1.6651 0.214111 1.76863C0.214111 1.87217 0.234689 1.97467 0.274648 2.07018C0.314607 2.1657 0.373151 2.25232 0.446877 2.32501C0.520604 2.3977 0.608042 2.45501 0.704111 2.49362C0.80018 2.53222 0.902963 2.55135 1.00649 2.54988H2.44183C2.82096 2.54988 3.137 2.81182 3.20884 3.18465L3.36448 3.99845L5.04396 12.819C5.34767 14.4105 6.74979 15.5707 8.37038 15.5707H18.1218C19.7424 15.5707 21.1451 14.4109 21.4482 12.819L23.1277 3.99845C23.1492 3.88551 23.1456 3.76922 23.117 3.65785C23.0884 3.54649 23.0356 3.4428 22.9624 3.35419C22.8891 3.26558 22.7972 3.19423 22.6932 3.14523C22.5892 3.09623 22.4756 3.07079 22.3607 3.07072H4.77744L4.74387 2.8927C4.53391 1.79235 3.5622 0.987383 2.44183 0.987383H1.00649ZM5.0755 4.63322H21.4166L19.9131 12.5271C19.7486 13.3915 19.0022 14.0082 18.1218 14.0082H8.37038C7.49024 14.0082 6.74439 13.3914 6.579 12.5271V12.5261L5.0755 4.63322ZM9.60024 16.6124C9.18584 16.6124 8.78841 16.777 8.49538 17.07C8.20236 17.3631 8.03774 17.7605 8.03774 18.1749C8.03774 18.5893 8.20236 18.9867 8.49538 19.2797C8.78841 19.5728 9.18584 19.7374 9.60024 19.7374C10.0146 19.7374 10.4121 19.5728 10.7051 19.2797C10.9981 18.9867 11.1627 18.5893 11.1627 18.1749C11.1627 17.7605 10.9981 17.3631 10.7051 17.07C10.4121 16.777 10.0146 16.6124 9.60024 16.6124ZM16.8919 16.6124C16.4775 16.6124 16.0801 16.777 15.7871 17.07C15.494 17.3631 15.3294 17.7605 15.3294 18.1749C15.3294 18.5893 15.494 18.9867 15.7871 19.2797C16.0801 19.5728 16.4775 19.7374 16.8919 19.7374C17.3063 19.7374 17.7037 19.5728 17.9968 19.2797C18.2898 18.9867 18.4544 18.5893 18.4544 18.1749C18.4544 17.7605 18.2898 17.3631 17.9968 17.07C17.7037 16.777 17.3063 16.6124 16.8919 16.6124Z" fill="#F8F8F8"/>
</svg>
