<svg width="1440" height="30" viewBox="0 0 1440 30" fill="none" xmlns="http://www.w3.org/2000/svg">
<path fill-rule="evenodd" clip-rule="evenodd" d="M0.5 29.4844C0.332806 29.4844 0.16613 29.4826 0 29.4791V0.00528004C0.16613 0.0017674 0.332806 0 0.5 0C10.7173 0 19 6.6003 19 14.7422C19 22.8841 10.7173 29.4844 0.5 29.4844ZM56 14.7422C56 6.6003 47.7173 0 37.5 0C27.2827 0 19 6.6003 19 14.7422C19 22.8841 27.2827 29.4844 37.5 29.4844C47.7173 29.4844 56 22.8841 56 14.7422ZM93 14.7422C93 6.6003 84.7173 0 74.5 0C64.2827 0 56 6.6003 56 14.7422C56 22.8841 64.2827 29.4844 74.5 29.4844C84.7173 29.4844 93 22.8841 93 14.7422ZM130 14.7422C130 6.6003 121.717 0 111.5 0C101.283 0 93 6.6003 93 14.7422C93 22.8841 101.283 29.4844 111.5 29.4844C121.717 29.4844 130 22.8841 130 14.7422ZM167 14.7422C167 6.6003 158.717 0 148.5 0C138.283 0 130 6.6003 130 14.7422C130 22.8841 138.283 29.4844 148.5 29.4844C158.717 29.4844 167 22.8841 167 14.7422ZM204 14.7422C204 6.6003 195.717 0 185.5 0C175.283 0 167 6.6003 167 14.7422C167 22.8841 175.283 29.4844 185.5 29.4844C195.717 29.4844 204 22.8841 204 14.7422ZM241 14.7422C241 6.6003 232.717 0 222.5 0C212.283 0 204 6.6003 204 14.7422C204 22.8841 212.283 29.4844 222.5 29.4844C232.717 29.4844 241 22.8841 241 14.7422ZM278 14.7422C278 6.6003 269.717 0 259.5 0C249.283 0 241 6.6003 241 14.7422C241 22.8841 249.283 29.4844 259.5 29.4844C269.717 29.4844 278 22.8841 278 14.7422ZM315 14.7422C315 6.6003 306.717 0 296.5 0C286.283 0 278 6.6003 278 14.7422C278 22.8841 286.283 29.4844 296.5 29.4844C306.717 29.4844 315 22.8841 315 14.7422ZM352 14.7422C352 6.6003 343.717 0 333.5 0C323.283 0 315 6.6003 315 14.7422C315 22.8841 323.283 29.4844 333.5 29.4844C343.717 29.4844 352 22.8841 352 14.7422ZM389 14.7422C389 6.6003 380.717 0 370.5 0C360.283 0 352 6.6003 352 14.7422C352 22.8841 360.283 29.4844 370.5 29.4844C380.717 29.4844 389 22.8841 389 14.7422ZM426 14.7422C426 6.6003 417.717 0 407.5 0C397.283 0 389 6.6003 389 14.7422C389 22.8841 397.283 29.4844 407.5 29.4844C417.717 29.4844 426 22.8841 426 14.7422ZM463 14.7422C463 6.6003 454.717 0 444.5 0C434.283 0 426 6.6003 426 14.7422C426 22.8841 434.283 29.4844 444.5 29.4844C454.717 29.4844 463 22.8841 463 14.7422ZM500 14.7422C500 6.6003 491.717 0 481.5 0C471.283 0 463 6.6003 463 14.7422C463 22.8841 471.283 29.4844 481.5 29.4844C491.717 29.4844 500 22.8841 500 14.7422ZM537 14.7422C537 6.6003 528.717 0 518.5 0C508.283 0 500 6.6003 500 14.7422C500 22.8841 508.283 29.4844 518.5 29.4844C528.717 29.4844 537 22.8841 537 14.7422ZM574 14.7422C574 6.6003 565.717 0 555.5 0C545.283 0 537 6.6003 537 14.7422C537 22.8841 545.283 29.4844 555.5 29.4844C565.717 29.4844 574 22.8841 574 14.7422ZM611 14.7422C611 6.6003 602.717 0 592.5 0C582.283 0 574 6.6003 574 14.7422C574 22.8841 582.283 29.4844 592.5 29.4844C602.717 29.4844 611 22.8841 611 14.7422ZM648 14.7422C648 6.6003 639.717 0 629.5 0C619.283 0 611 6.6003 611 14.7422C611 22.8841 619.283 29.4844 629.5 29.4844C639.717 29.4844 648 22.8841 648 14.7422ZM685 14.7422C685 6.6003 676.717 0 666.5 0C656.283 0 648 6.6003 648 14.7422C648 22.8841 656.283 29.4844 666.5 29.4844C676.717 29.4844 685 22.8841 685 14.7422ZM722 14.7422C722 6.6003 713.717 0 703.5 0C693.283 0 685 6.6003 685 14.7422C685 22.8841 693.283 29.4844 703.5 29.4844C713.717 29.4844 722 22.8841 722 14.7422ZM759 14.7422C759 6.6003 750.717 0 740.5 0C730.283 0 722 6.6003 722 14.7422C722 22.8841 730.283 29.4844 740.5 29.4844C750.717 29.4844 759 22.8841 759 14.7422ZM796 14.7422C796 6.6003 787.717 0 777.5 0C767.283 0 759 6.6003 759 14.7422C759 22.8841 767.283 29.4844 777.5 29.4844C787.717 29.4844 796 22.8841 796 14.7422ZM833 14.7422C833 6.6003 824.717 0 814.5 0C804.283 0 796 6.6003 796 14.7422C796 22.8841 804.283 29.4844 814.5 29.4844C824.717 29.4844 833 22.8841 833 14.7422ZM870 14.7422C870 6.6003 861.717 0 851.5 0C841.283 0 833 6.6003 833 14.7422C833 22.8841 841.283 29.4844 851.5 29.4844C861.717 29.4844 870 22.8841 870 14.7422ZM907 14.7422C907 6.6003 898.717 0 888.5 0C878.283 0 870 6.6003 870 14.7422C870 22.8841 878.283 29.4844 888.5 29.4844C898.717 29.4844 907 22.8841 907 14.7422ZM944 14.7422C944 6.6003 935.717 0 925.5 0C915.283 0 907 6.6003 907 14.7422C907 22.8841 915.283 29.4844 925.5 29.4844C935.717 29.4844 944 22.8841 944 14.7422ZM981 14.7422C981 6.6003 972.717 0 962.5 0C952.283 0 944 6.6003 944 14.7422C944 22.8841 952.283 29.4844 962.5 29.4844C972.717 29.4844 981 22.8841 981 14.7422ZM1018 14.7422C1018 6.6003 1009.72 0 999.5 0C989.283 0 981 6.6003 981 14.7422C981 22.8841 989.283 29.4844 999.5 29.4844C1009.72 29.4844 1018 22.8841 1018 14.7422ZM1055 14.7422C1055 6.6003 1046.72 0 1036.5 0C1026.28 0 1018 6.6003 1018 14.7422C1018 22.8841 1026.28 29.4844 1036.5 29.4844C1046.72 29.4844 1055 22.8841 1055 14.7422ZM1092 14.7422C1092 6.6003 1083.72 0 1073.5 0C1063.28 0 1055 6.6003 1055 14.7422C1055 22.8841 1063.28 29.4844 1073.5 29.4844C1083.72 29.4844 1092 22.8841 1092 14.7422ZM1129 14.7422C1129 6.6003 1120.72 0 1110.5 0C1100.28 0 1092 6.6003 1092 14.7422C1092 22.8841 1100.28 29.4844 1110.5 29.4844C1120.72 29.4844 1129 22.8841 1129 14.7422ZM1166 14.7422C1166 6.6003 1157.72 0 1147.5 0C1137.28 0 1129 6.6003 1129 14.7422C1129 22.8841 1137.28 29.4844 1147.5 29.4844C1157.72 29.4844 1166 22.8841 1166 14.7422ZM1203 14.7422C1203 6.6003 1194.72 0 1184.5 0C1174.28 0 1166 6.6003 1166 14.7422C1166 22.8841 1174.28 29.4844 1184.5 29.4844C1194.72 29.4844 1203 22.8841 1203 14.7422ZM1240 14.7422C1240 6.6003 1231.72 0 1221.5 0C1211.28 0 1203 6.6003 1203 14.7422C1203 22.8841 1211.28 29.4844 1221.5 29.4844C1231.72 29.4844 1240 22.8841 1240 14.7422ZM1277 14.7422C1277 6.6003 1268.72 0 1258.5 0C1248.28 0 1240 6.6003 1240 14.7422C1240 22.8841 1248.28 29.4844 1258.5 29.4844C1268.72 29.4844 1277 22.8841 1277 14.7422ZM1314 14.7422C1314 6.6003 1305.72 0 1295.5 0C1285.28 0 1277 6.6003 1277 14.7422C1277 22.8841 1285.28 29.4844 1295.5 29.4844C1305.72 29.4844 1314 22.8841 1314 14.7422ZM1351 14.7422C1351 6.6003 1342.72 0 1332.5 0C1322.28 0 1314 6.6003 1314 14.7422C1314 22.8841 1322.28 29.4844 1332.5 29.4844C1342.72 29.4844 1351 22.8841 1351 14.7422ZM1388 14.7422C1388 22.8841 1379.72 29.4844 1369.5 29.4844C1359.28 29.4844 1351 22.8841 1351 14.7422C1351 6.6003 1359.28 0 1369.5 0C1379.72 0 1388 6.6003 1388 14.7422ZM1388 14.7422C1388 22.8841 1396.28 29.4844 1406.5 29.4844C1416.72 29.4844 1425 22.8841 1425 14.7422C1425 6.6003 1416.72 0 1406.5 0C1396.28 0 1388 6.6003 1388 14.7422ZM1425 14.7422C1425 7.55381 1431.46 1.5671 1440 0.263428V29.2209C1431.46 27.9172 1425 21.9305 1425 14.7422Z" fill="#0F83B2"/>
</svg>
