<svg width="21" height="20" viewBox="0 0 21 20" fill="none" xmlns="http://www.w3.org/2000/svg">
<path d="M12.2675 10.0001L20.1337 2.13381C20.3681 1.89942 20.4998 1.58153 20.4998 1.25006C20.4998 0.918585 20.3681 0.600691 20.1337 0.366305C19.8994 0.13192 19.5815 0.000244141 19.25 0.000244141C18.9185 0.000244141 18.6006 0.13192 18.3662 0.366305L10.5 8.23256L2.63374 0.366305C2.51769 0.25025 2.37991 0.158189 2.22828 0.0953806C2.07664 0.0325717 1.91412 0.000244141 1.74999 0.000244141C1.58587 0.000244141 1.42335 0.0325717 1.27171 0.0953806C1.12008 0.158189 0.9823 0.25025 0.866244 0.366305C0.631859 0.600691 0.500183 0.918585 0.500183 1.25006C0.500183 1.58153 0.631859 1.89942 0.866244 2.13381L8.7325 10.0001L0.866244 17.8663C0.631859 18.1007 0.500183 18.4186 0.500183 18.7501C0.500183 19.0815 0.631859 19.3994 0.866244 19.6338C1.10063 19.8682 1.41852 19.9999 1.74999 19.9999C2.08147 19.9999 2.39936 19.8682 2.63374 19.6338L10.5 11.7676L18.3662 19.6338C18.4821 19.7503 18.6198 19.8427 18.7714 19.9058C18.9231 19.9689 19.0857 20.0014 19.25 20.0014C19.4143 20.0014 19.5769 19.9689 19.7286 19.9058C19.8802 19.8427 20.0179 19.7503 20.1337 19.6338C20.2499 19.5178 20.3421 19.3801 20.405 19.2284C20.4679 19.0768 20.5002 18.9142 20.5002 18.7501C20.5002 18.5859 20.4679 18.4233 20.405 18.2717C20.3421 18.12 20.2499 17.9823 20.1337 17.8663L12.2675 10.0001Z" fill="#7F7F7F"/>
</svg>
